<svg width="373" height="373" viewBox="0 0 373 373" fill="none" xmlns="http://www.w3.org/2000/svg">
<path opacity="0.05" d="M48.4918 327.997C31.9533 328.182 7.27267 318.229 11.4285 295.927C14.2273 280.814 2.52314 266.621 0.402808 251.416C-2.05677 233.906 6.93342 215.29 22.2846 206.167C27.7126 202.942 34.1584 200.638 37.8902 195.477C49.5096 179.81 30.0026 160.273 37.4661 139.262C41.7916 127.189 54.4288 120.554 71.3066 121.66C88.6084 122.858 105.232 119.356 107.352 102.307C109.133 88.5758 108.964 78.8994 122.364 67.1034C144.585 47.4741 200.138 44.8937 211.418 81.7562C214.725 92.4463 224.055 115.854 256.538 96.0404C281.813 80.5582 341.691 98.4365 322.523 143.04C314.975 160.642 329.817 166.263 352.801 175.387C370.018 182.206 384.437 216.212 349.154 245.426C344.065 249.573 355.939 261.461 360.858 265.792C389.186 290.674 362.555 327.352 335.923 327.997C335.923 327.997 65.0304 327.813 48.4918 327.997ZM87.6755 89.4052C78.2612 87.1013 75.2928 97.6992 75.632 105.348C75.7168 106.823 75.8016 108.389 76.3953 109.68C77.3283 111.523 79.1942 112.721 81.0601 113.274C84.1133 114.195 87.5059 114.011 90.6439 113.274C92.6795 112.813 94.715 112.076 96.1568 110.509C101.924 104.242 94.715 91.064 87.6755 89.4052ZM248.396 84.8895C248.227 87.562 246.276 89.866 243.986 90.9718C241.696 92.1699 239.067 92.4463 236.522 92.6306C232.875 92.9071 228.635 92.9071 226.175 90.0503C224.479 88.115 224.055 85.166 224.394 82.5856C225.412 75.9504 229.313 69.4073 236.438 70.2367C241.866 70.9739 248.651 79.268 248.396 84.8895ZM257.302 68.9465C256.454 69.5916 255.266 69.7759 254.248 69.4994C253.74 69.4073 253.146 69.1308 252.722 68.7622C249.668 66.3661 250.856 61.8505 254.757 62.3113C257.811 62.6799 260.779 66.4583 257.302 68.9465ZM349.578 151.887C350.596 153.454 351.359 155.389 350.766 157.14C350.342 158.43 349.239 159.352 348.137 159.905C345.762 161.103 342.878 160.826 340.419 159.72C337.959 158.707 335.839 156.956 333.803 155.113C332.87 154.283 332.022 153.454 331.513 152.348C331.174 151.518 331.089 150.597 331.089 149.767C331.004 148.201 331.174 146.634 331.598 145.16C332.192 143.224 333.294 141.473 334.397 139.907C336.093 137.511 338.553 134.654 341.776 135.207C343.726 135.575 344.15 136.773 344.235 138.709C344.235 140.828 343.811 142.856 344.574 144.975C345.422 147.74 348.052 149.583 349.578 151.887ZM15.9236 197.228C12.7855 200.085 7.4423 199.624 4.72828 196.214C-4.77079 184.234 3.62571 154.744 21.3516 158.983C27.9671 160.55 32.971 168.567 30.0026 175.571C28.3063 179.534 23.8112 181.561 21.6909 185.248C19.4858 189.118 19.3161 194.187 15.9236 197.228Z" fill="white"/>
<path d="M204.448 154.844C205.61 153.956 206.975 153.37 208.42 153.138C209.865 152.907 211.344 153.038 212.726 153.52C210.305 144.58 207.842 134.448 201.715 127.689C200.888 126.819 195.879 121.729 189.67 120.775C186.174 120.288 182.617 120.485 179.197 121.355C175.016 122.349 174.064 123.259 172.904 124.998C171.599 127.14 170.437 129.367 169.427 131.663C170.452 131.663 177.804 127.856 186.027 129.882C195.755 132.242 197.741 137.83 199.108 140.272C201.151 145.029 202.934 149.893 204.448 154.844Z" fill="#B0DDC9"/>
<path d="M124.97 155.382C124.225 155.416 123.52 155.424 122.775 155.424C122.402 154.43 122.03 153.436 121.616 152.484C121.285 151.697 120.042 151.49 119.836 152.484C119.631 153.478 119.422 154.43 119.173 155.382C118.13 155.34 117.062 155.299 116.028 155.217C115.808 155.226 115.597 155.306 115.425 155.444C115.254 155.583 115.132 155.772 115.076 155.985C115.02 156.198 115.034 156.423 115.116 156.628C115.198 156.832 115.343 157.005 115.53 157.121C116.401 157.575 117.269 158.031 118.098 158.528C117.627 159.456 117.345 160.469 117.269 161.508C117.062 162.294 118.221 162.872 118.884 162.335C119.67 161.755 120.415 161.143 121.201 160.555C121.906 161.052 122.568 161.59 123.271 162.127C123.976 162.707 125.382 162.169 124.97 161.135C124.637 160.223 124.265 159.313 123.927 158.444C124.423 158.072 124.97 157.657 125.458 157.285C126.169 156.665 126.045 155.332 124.97 155.382Z" fill="#B0DDC9"/>
<path d="M112.301 156.376C111.471 156.39 110.642 156.445 109.818 156.541C109.57 155.878 109.371 155.217 109.156 154.554C109.095 154.343 108.967 154.158 108.791 154.026C108.616 153.894 108.402 153.823 108.183 153.823C107.964 153.823 107.75 153.894 107.575 154.026C107.399 154.158 107.271 154.343 107.21 154.554C107.045 155.34 106.838 156.127 106.63 156.872C105.587 157.004 104.537 157.073 103.485 157.079C102.491 157.079 101.953 158.611 102.946 159.065C103.732 159.439 104.561 159.81 105.348 160.184C104.931 161.04 104.678 161.967 104.603 162.916C104.606 163.063 104.653 163.206 104.738 163.326C104.822 163.447 104.941 163.539 105.078 163.593C105.215 163.646 105.365 163.657 105.509 163.625C105.653 163.593 105.784 163.52 105.885 163.413C106.714 162.792 107.541 162.254 108.369 161.591C109.114 161.922 109.859 162.294 110.604 162.634C110.807 162.742 111.039 162.782 111.266 162.748C111.493 162.714 111.703 162.608 111.865 162.445C112.027 162.283 112.133 162.073 112.167 161.846C112.201 161.619 112.16 161.387 112.053 161.184C111.72 160.6 111.402 160.006 111.1 159.405C111.68 158.949 112.219 158.535 112.839 158.122C113.012 158.009 113.143 157.843 113.213 157.649C113.284 157.455 113.289 157.244 113.228 157.047C113.167 156.849 113.044 156.677 112.877 156.556C112.71 156.435 112.508 156.372 112.301 156.376Z" fill="#B0DDC9"/>
<path d="M98.7247 156.707C97.856 156.763 97.0276 156.831 96.1574 156.872C95.7432 156.044 95.329 155.175 94.9162 154.347C94.5437 153.56 93.4665 153.892 93.2191 154.554C92.9211 155.382 92.6395 156.251 92.349 157.087C91.2315 157.169 90.114 157.21 88.9965 157.252C88.168 157.294 87.6301 158.577 88.5405 158.949C89.3273 159.322 90.1557 159.653 90.9826 160.025C90.5936 160.848 90.2886 161.708 90.0723 162.592C90.0128 162.768 90.0086 162.958 90.0602 163.137C90.1118 163.315 90.2167 163.473 90.3608 163.59C90.505 163.708 90.6815 163.778 90.8667 163.792C91.0519 163.805 91.2369 163.762 91.3969 163.668C91.4386 163.626 93.7153 162.096 94.502 161.557C95.4124 161.971 96.2811 162.385 97.1513 162.841C97.3247 162.94 97.5258 162.979 97.7236 162.952C97.9215 162.926 98.105 162.835 98.2461 162.694C98.3872 162.552 98.4779 162.369 98.5043 162.171C98.5308 161.973 98.4915 161.772 98.3924 161.599C98.1034 160.937 97.7726 160.274 97.482 159.571C98.0616 159.198 98.6413 158.826 99.2209 158.411C99.3913 158.305 99.5223 158.146 99.594 157.958C99.6656 157.77 99.674 157.564 99.6179 157.371C99.5617 157.178 99.4441 157.009 99.2828 156.889C99.1216 156.769 98.9256 156.705 98.7247 156.707Z" fill="#B0DDC9"/>
<path d="M263.022 81.2846C262.317 81.2488 261.614 81.2011 260.952 81.2011C260.62 80.1671 260.331 79.1315 260 78.0975C259.944 77.9045 259.827 77.7349 259.667 77.6142C259.506 77.4935 259.311 77.4282 259.11 77.4282C258.909 77.4282 258.714 77.4935 258.553 77.6142C258.393 77.7349 258.276 77.9045 258.22 78.0975C257.929 79.0496 257.64 79.96 257.391 80.9121C256.399 80.7884 255.454 80.705 254.453 80.5396C254.218 80.4858 253.971 80.5166 253.756 80.6266C253.542 80.7366 253.373 80.9187 253.279 81.1409C253.185 81.3632 253.172 81.6114 253.243 81.842C253.314 82.0726 253.464 82.2709 253.666 82.4021C254.493 82.8997 255.28 83.4451 256.067 83.9755C255.521 84.9172 255.169 85.9589 255.033 87.0389C255.033 87.2043 255.612 88.6109 256.439 87.9076C257.253 87.2804 258.111 86.7132 259.006 86.2105C259.668 86.7901 260.331 87.3697 260.993 87.9985C261.153 88.1537 261.359 88.2522 261.581 88.279C261.802 88.3057 262.026 88.2591 262.219 88.1464C262.411 88.0337 262.561 87.861 262.647 87.6549C262.732 87.4487 262.747 87.2203 262.69 87.0047C262.442 86.0943 262.152 85.2167 261.905 84.3137C262.442 83.9412 263.022 83.5687 263.56 83.1962C263.744 83.0742 263.885 82.897 263.961 82.69C264.038 82.483 264.047 82.2569 263.988 82.0444C263.928 81.8318 263.802 81.6437 263.629 81.5072C263.455 81.3706 263.243 81.2927 263.022 81.2846Z" fill="#B0DDC9"/>
<path d="M250.355 81.3262C249.528 81.2681 248.741 81.2845 247.912 81.2845C247.705 80.5812 247.54 79.8764 247.375 79.1732C247.313 78.9625 247.185 78.7773 247.01 78.6456C246.834 78.5139 246.621 78.4426 246.402 78.4426C246.182 78.4426 245.969 78.5139 245.793 78.6456C245.618 78.7773 245.49 78.9625 245.429 79.1732C245.221 79.9182 244.982 80.6632 244.725 81.3679C243.649 81.4151 242.571 81.4012 241.496 81.3262C241.266 81.3336 241.044 81.4147 240.864 81.5576C240.683 81.7006 240.553 81.8978 240.492 82.1202C240.432 82.3427 240.445 82.5785 240.529 82.7932C240.613 83.0078 240.763 83.1898 240.959 83.3124C241.745 83.7683 242.572 84.2243 243.359 84.6787C243.017 85.4831 242.7 86.2975 242.407 87.1208C242.158 87.8658 243.152 88.3218 243.69 87.8658C243.815 87.7421 245.478 86.5829 246.05 86.2104C246.795 86.6246 247.582 87.0806 248.327 87.4933C248.529 87.5978 248.76 87.6353 248.985 87.6002C249.21 87.5652 249.419 87.4595 249.58 87.2983C249.741 87.1372 249.847 86.929 249.883 86.7037C249.918 86.4784 249.881 86.2478 249.776 86.045C249.486 85.4654 249.237 84.8441 248.988 84.2645C249.61 83.8518 250.231 83.4793 250.852 83.1053C251.721 82.6508 251.266 81.3903 250.355 81.3262Z" fill="#B0DDC9"/>
<path d="M237.2 81.8224H234.666C234.336 80.9954 234.003 80.2087 233.673 79.3803C233.424 78.7172 232.348 78.3373 231.976 79.1731L230.858 81.7806C229.741 81.7806 228.581 81.7404 227.464 81.6987C227.266 81.7026 227.074 81.7708 226.918 81.8929C226.762 82.0151 226.65 82.1846 226.598 82.376C226.547 82.5674 226.559 82.7703 226.633 82.9542C226.707 83.1381 226.838 83.2931 227.008 83.3958C227.753 83.81 228.54 84.2242 229.285 84.5967C228.883 85.3771 228.524 86.1784 228.209 86.9971C228.122 87.1752 228.094 87.3761 228.128 87.5712C228.162 87.7663 228.257 87.9456 228.4 88.0833C228.542 88.2211 228.724 88.3103 228.921 88.3381C229.117 88.3659 229.317 88.331 229.492 88.2383C229.533 88.1981 231.852 86.8735 232.68 86.4175L235.288 87.9075C235.446 87.9978 235.628 88.0396 235.81 88.0278C235.992 88.0159 236.166 87.9509 236.311 87.8408C236.457 87.7306 236.567 87.5803 236.627 87.4083C236.688 87.2364 236.697 87.0504 236.653 86.8735C236.405 86.1285 236.115 85.3835 235.826 84.6385C236.446 84.3077 237.067 83.9352 237.688 83.6044C237.859 83.4911 237.989 83.3269 238.061 83.1353C238.133 82.9436 238.142 82.7341 238.088 82.5367C238.034 82.3393 237.919 82.164 237.759 82.0358C237.6 81.9075 237.404 81.8328 237.2 81.8224Z" fill="#B0DDC9"/>
<path d="M212.479 83.3958C213.224 83.8011 214.011 84.2242 214.756 84.5967C214.355 85.3775 213.995 86.1787 213.678 86.9971C213.591 87.1753 213.563 87.3766 213.597 87.572C213.631 87.7674 213.726 87.9469 213.869 88.0848C214.012 88.2226 214.194 88.3118 214.391 88.3393C214.587 88.3669 214.788 88.3315 214.963 88.2383C216.017 87.6182 217.08 87.0113 218.15 86.4175L220.757 87.9075C220.916 87.9983 221.097 88.0405 221.28 88.0288C221.462 88.0172 221.637 87.9522 221.782 87.842C221.928 87.7318 222.038 87.5813 222.098 87.4091C222.159 87.2368 222.168 87.0506 222.124 86.8734C221.875 86.1284 221.586 85.3834 221.295 84.6384C221.917 84.3077 222.538 83.9352 223.159 83.6044C223.337 83.494 223.474 83.329 223.549 83.1342C223.625 82.9395 223.636 82.7254 223.58 82.524C223.524 82.3226 223.404 82.1449 223.239 82.0173C223.073 81.8897 222.871 81.8192 222.662 81.8164H220.136C219.805 80.9894 219.474 80.2027 219.144 79.3743C218.895 78.7127 217.818 78.3402 217.445 79.1672L216.329 81.7747C215.212 81.7747 214.052 81.7344 212.933 81.6927C212.737 81.7013 212.548 81.7723 212.395 81.8955C212.242 82.0186 212.132 82.1875 212.081 82.3775C212.03 82.5674 212.042 82.7686 212.113 82.9518C212.185 83.1349 212.313 83.2905 212.479 83.3958Z" fill="#B0DDC9"/>
<path d="M218.606 160.308C217.717 158.92 216.546 157.735 215.168 156.83C209.643 152.888 202.642 157.589 201.798 163.868C201.468 166.517 201.219 171.526 203.496 175.341C204.588 177.266 206.386 178.693 208.51 179.318C210.634 179.943 212.917 179.719 214.879 178.693C220.599 175.773 221.751 165.601 218.606 160.308ZM216.66 173.271C216.534 173.384 216.379 173.459 216.212 173.487C216.046 173.515 215.874 173.496 215.719 173.431C215.563 173.366 215.428 173.258 215.331 173.12C215.234 172.981 215.178 172.818 215.17 172.65C215.253 170.456 216.082 168.427 215.958 166.192C215.958 164.997 215.72 163.815 215.258 162.713C214.796 161.612 214.119 160.613 213.267 159.776C212.562 159.155 213.517 157.949 214.261 158.493C215.337 159.301 216.237 160.319 216.906 161.486C217.575 162.654 217.998 163.945 218.151 165.282C218.522 167.801 218.48 171.277 216.66 173.265V173.271Z" fill="#B0DDC9"/>
<path d="M144.67 96.9324C143.097 91.7174 110.315 94.1297 106.377 94.9864C105.391 95.0888 104.485 95.577 103.857 96.3446C103.229 97.1121 102.93 98.0968 103.025 99.0839C102.959 102.769 101.949 117.837 102.527 121.646C103.439 127.771 108.944 127.398 113.87 127.564C116.685 127.647 128.648 127.44 128.648 127.44C138.035 134.173 136.655 133.424 136.843 133.236C137.009 131.994 136.057 127.316 138.084 127.026C138.913 126.902 142.97 126.902 143.757 125.578C145.625 122.472 145.046 98.0901 144.67 96.9324ZM114.329 112.99C113.776 113.044 113.224 112.879 112.791 112.531C112.358 112.183 112.079 111.679 112.012 111.128C112.013 110.752 112.116 110.384 112.309 110.062C112.502 109.739 112.779 109.475 113.109 109.297C113.44 109.119 113.813 109.034 114.188 109.05C114.563 109.066 114.927 109.183 115.241 109.389C115.587 109.61 115.855 109.935 116.006 110.317C116.157 110.7 116.184 111.12 116.083 111.518C115.982 111.917 115.759 112.273 115.444 112.537C115.129 112.801 114.739 112.96 114.329 112.99ZM123.934 112.99C122.03 112.99 121.657 111.914 121.615 111.128C121.617 110.752 121.719 110.384 121.912 110.062C122.105 109.739 122.382 109.475 122.712 109.297C123.043 109.119 123.416 109.034 123.791 109.05C124.166 109.066 124.53 109.183 124.844 109.389C125.189 109.611 125.456 109.936 125.607 110.318C125.757 110.699 125.784 111.119 125.684 111.517C125.583 111.915 125.36 112.271 125.046 112.535C124.732 112.8 124.343 112.959 123.934 112.99ZM133.331 112.99C131.302 112.99 131.053 111.914 131.013 111.128C131.015 110.753 131.118 110.385 131.311 110.063C131.504 109.742 131.78 109.478 132.111 109.301C132.441 109.123 132.813 109.038 133.188 109.054C133.563 109.07 133.926 109.187 134.24 109.392C134.582 109.616 134.845 109.941 134.993 110.321C135.141 110.701 135.167 111.119 135.067 111.514C134.967 111.91 134.746 112.265 134.435 112.53C134.124 112.794 133.738 112.955 133.331 112.99Z" fill="#B0DDC9"/>
<path d="M310.875 162.756C310.926 162.266 310.88 161.771 310.739 161.3C310.598 160.828 310.365 160.389 310.053 160.008C309.741 159.627 309.356 159.311 308.922 159.08C308.487 158.848 308.011 158.705 307.521 158.659C303.631 157.83 270.804 155.43 269.228 160.645C268.897 161.804 268.318 186.186 270.138 189.29C270.925 190.615 274.981 190.615 275.809 190.74C278.044 191.059 276.738 196.759 277.094 197.114C277.094 197.032 285.745 192.064 285.745 192.064C285.745 192.064 297.21 191.36 300.026 191.278C304.952 191.112 310.456 191.443 311.368 185.358C311.951 181.544 310.94 166.481 310.875 162.756ZM282.891 174.803C282.808 175.588 282.56 176.831 280.573 176.665C280.168 176.636 279.782 176.481 279.47 176.22C279.159 175.96 278.937 175.609 278.835 175.216C278.751 174.842 278.773 174.453 278.898 174.091C279.023 173.73 279.246 173.41 279.543 173.168C279.839 172.927 280.197 172.772 280.577 172.723C280.956 172.673 281.342 172.731 281.69 172.888C282.061 173.046 282.375 173.313 282.59 173.654C282.804 173.996 282.909 174.394 282.891 174.797V174.803ZM292.247 174.803C292.163 175.588 291.998 176.665 289.928 176.665C289.519 176.651 289.126 176.501 288.811 176.238C288.496 175.976 288.277 175.616 288.19 175.216C288.108 174.843 288.131 174.455 288.257 174.095C288.383 173.734 288.607 173.416 288.903 173.176C289.199 172.936 289.557 172.782 289.935 172.733C290.314 172.684 290.698 172.742 291.046 172.899C291.415 173.056 291.727 173.322 291.942 173.661C292.156 174 292.263 174.396 292.247 174.797V174.803ZM301.892 174.845C301.81 175.63 301.354 176.665 299.533 176.707C299.123 176.676 298.733 176.515 298.42 176.248C298.106 175.982 297.885 175.623 297.789 175.223C297.692 174.823 297.725 174.402 297.882 174.022C298.039 173.642 298.312 173.321 298.663 173.106C298.976 172.897 299.34 172.777 299.716 172.759C300.092 172.742 300.465 172.826 300.797 173.004C301.128 173.182 301.405 173.447 301.598 173.77C301.791 174.093 301.893 174.462 301.892 174.839V174.845Z" fill="#B0DDC9"/>
<path d="M170.835 179.185C170.173 179.139 169.924 180.012 170.297 180.426C173.442 183.862 180.356 180.344 180.28 175.996C180.273 175.819 180.21 175.648 180.1 175.509C179.99 175.37 179.837 175.271 179.666 175.224C179.495 175.178 179.313 175.188 179.148 175.253C178.983 175.317 178.842 175.433 178.748 175.584C178.08 177.024 176.981 178.222 175.603 179.011C173.98 179.846 172.533 179.295 170.835 179.185Z" fill="#4DC591"/>
<path d="M167.02 141.556C166.361 142.099 167.062 143.17 167.848 142.963C170.207 142.218 171.78 143.915 171.739 146.241C171.672 149.054 169.057 152.824 167.02 161.309C166.191 164.662 164.163 174.017 170.579 173.272C171.242 173.189 171.532 172.155 170.745 171.99C165.695 170.954 168.717 163.006 169.586 159.819C171.792 152.007 175.932 146.482 172.691 142.351C172.376 141.918 171.978 141.554 171.52 141.279C171.062 141.004 170.553 140.824 170.024 140.75C169.495 140.676 168.956 140.709 168.44 140.847C167.924 140.986 167.441 141.227 167.02 141.556Z" fill="#4DC591"/>
<path d="M182.798 156.665C184.826 156.878 187.724 155.175 187.475 152.857C187.468 152.67 187.402 152.491 187.287 152.345C187.172 152.198 187.013 152.092 186.834 152.042C186.654 151.991 186.464 151.999 186.289 152.064C186.114 152.128 185.964 152.247 185.861 152.402C185.157 153.436 184.619 154.596 183.17 154.637C182.482 154.612 181.825 154.338 181.323 153.866C180.821 153.394 180.507 152.756 180.439 152.07C180.431 151.894 180.356 151.729 180.228 151.607C180.101 151.486 179.932 151.418 179.756 151.418C179.58 151.418 179.411 151.486 179.284 151.607C179.157 151.729 179.081 151.894 179.073 152.07C178.993 153.166 179.334 154.251 180.026 155.105C180.718 155.959 181.709 156.516 182.798 156.665Z" fill="#4DC591"/>
<path d="M168.51 151.739C168.507 151.595 168.466 151.455 168.392 151.332C168.319 151.209 168.214 151.106 168.089 151.036C167.964 150.965 167.823 150.928 167.679 150.928C167.535 150.928 167.394 150.965 167.269 151.036C166.813 151.283 166.441 151.822 165.819 151.697C165.24 151.574 165.033 150.952 164.867 150.456C164.836 150.35 164.775 150.254 164.69 150.183C164.606 150.111 164.502 150.065 164.392 150.052C164.281 150.039 164.17 150.058 164.071 150.108C163.971 150.157 163.889 150.235 163.833 150.331C163.695 150.633 163.621 150.961 163.618 151.293C163.615 151.626 163.682 151.955 163.815 152.26C163.948 152.564 164.143 152.838 164.389 153.062C164.634 153.286 164.924 153.455 165.24 153.56C166.488 154.016 168.607 153.311 168.51 151.739Z" fill="#4DC591"/>
<path d="M180.936 143.708C184.945 142.732 187.889 145.281 189.917 148.345C190.024 148.517 190.189 148.646 190.382 148.706C190.575 148.767 190.784 148.756 190.97 148.676C191.156 148.595 191.307 148.451 191.395 148.268C191.483 148.086 191.502 147.877 191.449 147.682C190.704 142.881 184.579 140.977 180.563 142.425C180.402 142.482 180.269 142.598 180.191 142.75C180.113 142.902 180.096 143.078 180.143 143.243C180.191 143.407 180.3 143.546 180.447 143.633C180.594 143.719 180.769 143.746 180.936 143.708Z" fill="#4DC591"/>
<path d="M156.677 192.762C158.912 193.954 162.762 193.714 163.467 191.81C165.039 187.545 160.445 183.986 156.057 185.725C154.437 183.6 153.358 181.114 152.91 178.48C152.12 173.931 153.61 170.078 154.814 165.772C155.021 165.027 154.027 164.696 153.615 165.276C148.894 171.775 149.557 181.627 154.483 187.836C154.263 188.784 154.358 189.778 154.754 190.667C155.149 191.556 155.825 192.291 156.677 192.762Z" fill="#4DC591"/>
<path d="M304.21 306.185C301.01 306.084 297.808 306.015 294.606 305.978C295.351 294.636 296.345 283.293 296.552 271.909C296.55 271.749 296.511 271.592 296.439 271.449C296.367 271.306 296.262 271.182 296.134 271.086C296.006 270.99 295.858 270.925 295.701 270.896C295.543 270.866 295.381 270.874 295.227 270.917C291.449 272.12 287.517 272.772 283.553 272.854C279.555 272.851 275.575 272.322 271.715 271.282C271.567 271.241 271.411 271.235 271.26 271.264C271.109 271.292 270.966 271.355 270.842 271.446C270.719 271.538 270.618 271.657 270.547 271.793C270.476 271.929 270.436 272.08 270.432 272.234C270.456 283.554 271.523 294.847 273.619 305.971C270.384 306.003 236.472 305.917 196.989 305.802C213.73 304.898 233.552 298.118 245.843 286.721C245.337 292.581 244.255 298.377 242.614 304.025C242.365 304.935 243.815 305.64 244.228 304.688C245.529 301.382 246.446 297.937 246.962 294.422C247.745 291.27 248.038 288.017 247.83 284.777C252.73 279.785 256.446 273.756 258.703 267.136C260.96 260.515 261.7 253.472 260.869 246.527C259.16 229.432 252.227 216.818 236.901 208.03C239.425 207.333 241.696 205.924 243.442 203.973C244.366 202.941 245.034 201.707 245.393 200.37C245.753 199.032 245.793 197.63 245.512 196.274C244.849 193.665 242.614 192.251 240.297 191.181C237.755 189.977 235.614 188.065 234.13 185.675C228.748 177.853 230.983 167.545 230.941 162.619C230.776 145.931 230.487 121.72 213.39 112.779C203.539 107.604 188.636 108.391 182.469 118.615C184.982 118.335 187.523 118.447 190.002 118.947C195.121 119.791 199.765 122.451 203.083 126.439C206.421 130.354 208.966 134.882 210.576 139.769C211.942 143.494 215.004 154.919 215.004 154.919C216.871 156.003 218.447 157.523 219.599 159.349C223.168 165.54 221.815 176.905 215.336 180.253C213.415 181.276 211.203 181.612 209.065 181.205C206.927 180.799 204.992 179.674 203.58 178.018C202.71 183.236 203.165 188.588 204.905 193.583C206.146 197.142 207.471 200.951 210.369 203.228C208.193 204.47 197.377 213.641 193.48 215.854C188.926 218.42 180.439 222.228 178.825 214.57C178.66 213.743 177.417 214.115 177.543 214.9C179.612 226.075 193.486 218.213 198.902 214.653C200.971 213.287 208.672 206.705 210.741 205.339C217.653 200.744 227.589 205.463 234.005 208.94C241.506 212.755 247.84 218.519 252.344 225.628C256.7 233.538 258.966 242.429 258.925 251.459C259.049 269.177 248.99 284.038 233.964 292.812C226.019 297.281 217.388 300.402 208.423 302.05C199.151 303.913 189.257 304.616 180.113 301.925C179.195 297.57 179.21 293.07 180.155 288.721C186.198 290.031 192.475 289.795 198.403 288.035C204.331 286.276 209.72 283.049 214.07 278.653C218.42 274.258 221.591 268.836 223.289 262.889C224.987 256.943 225.158 250.664 223.785 244.635C223.454 242.979 220.888 243.683 221.259 245.338C222.527 251.037 222.319 256.965 220.657 262.561C218.994 268.157 215.931 273.237 211.758 277.319C207.584 281.402 202.439 284.352 196.807 285.891C191.175 287.429 185.244 287.506 179.575 286.113C179.268 286.033 178.942 286.075 178.664 286.229C178.387 286.383 178.18 286.637 178.085 286.94C177.762 288.269 177.499 289.611 177.298 290.963C175.019 289.471 172.453 288.47 169.765 288.025C163.042 286.584 158.815 289.341 152.999 293.033C150.091 294.588 147.321 296.388 144.719 298.415C144.181 298.911 144.761 299.988 145.464 299.698C153.975 296.157 159.8 287.639 169.68 289.929C172.223 290.667 174.712 291.579 177.13 292.66C176.845 295.606 176.995 298.577 177.577 301.478C178.033 303.797 178.529 303.92 180.765 304.5C183.537 305.197 186.368 305.632 189.221 305.798L175.652 305.758C175.883 305.497 176.058 305.193 176.169 304.863C176.279 304.533 176.322 304.184 176.294 303.837C176.31 302.76 175.992 301.704 175.384 300.815C174.39 299.821 152.493 300.981 143.261 300.608C139.908 293.778 136.638 286.9 133.325 280.036C141.005 277.369 147.874 272.78 153.278 266.706C153.358 273.01 154.938 283.227 158.453 288.149C159.116 289.059 160.688 288.563 160.315 287.362C159.239 283.761 157.419 280.448 156.59 276.723C154.185 265.09 155.669 252.989 160.813 242.282C160.906 242.117 160.93 241.922 160.88 241.74C160.829 241.557 160.708 241.402 160.543 241.309C160.378 241.216 160.183 241.192 160.001 241.242C159.818 241.293 159.663 241.414 159.57 241.579C155.841 248.186 153.701 255.57 153.32 263.147C147.752 269.877 140.616 275.137 132.539 278.462C129.435 272.005 126.33 265.499 123.184 259.048C129.945 251.924 138.382 237.159 146.489 228.581C157.915 216.411 167.271 213.264 170.374 212.354C179.234 209.87 181.138 212.519 181.303 211.402C181.792 208.348 181.972 205.253 181.841 202.164C181.858 199.879 181.608 197.6 181.096 195.374C185.857 194.34 189.707 190.408 188.962 184.984C188.837 184.032 187.347 184.323 187.305 185.191C187.189 186.982 186.511 188.691 185.366 190.074C184.221 191.457 182.669 192.442 180.931 192.89C179.006 193.237 177.026 193.121 175.155 192.553C173.284 191.984 171.574 190.979 170.167 189.621C165.034 185.068 162.178 177.74 160.853 171.158C159.525 164.529 159.815 157.677 161.696 151.183C163.577 144.689 166.996 138.743 171.662 133.85C171.777 133.735 171.841 133.579 171.841 133.416C171.841 133.253 171.777 133.097 171.662 132.982C171.546 132.866 171.39 132.802 171.227 132.802C171.064 132.802 170.908 132.866 170.793 132.982C166.345 137.254 162.896 142.457 160.692 148.217C158.488 153.977 157.583 160.153 158.043 166.304C158.788 177.233 164.301 193.75 177.003 195.447C177.759 195.536 178.52 195.563 179.28 195.529C179.359 200.021 180.436 199.829 179.569 209.191C179.527 209.191 179.527 209.149 179.487 209.149C173.484 207.824 166.737 210.432 161.479 213.205C148.792 219.864 140.848 230.994 132.871 242.431C129.435 247.357 125.792 252.116 122.191 256.918C120.659 253.731 111.305 235.76 109.897 235.313C108.436 234.842 41.3566 235.953 33.8112 237.383C30.0862 238.086 33.3985 243.303 34.3089 245.331C42.3802 263.835 65.1057 305.354 65.1519 305.395C57.2027 305.272 49.5069 305.188 41.5145 305.106C41.3335 305.106 41.1599 305.178 41.032 305.306C40.904 305.434 40.8321 305.608 40.8321 305.789C40.8321 305.97 40.904 306.143 41.032 306.271C41.1599 306.399 41.3335 306.471 41.5145 306.471C108.493 309.676 287.254 308.432 304.126 307.714C304.23 307.727 304.336 307.718 304.437 307.689C304.538 307.659 304.631 307.609 304.712 307.541C304.793 307.474 304.859 307.391 304.906 307.297C304.953 307.203 304.981 307.1 304.987 306.995C304.992 306.89 304.977 306.785 304.94 306.686C304.904 306.588 304.847 306.497 304.774 306.421C304.702 306.346 304.614 306.285 304.517 306.245C304.42 306.204 304.316 306.184 304.21 306.185ZM292.536 305.978C286.742 305.936 280.946 305.978 275.191 306.02C273.594 295.285 272.695 284.458 272.502 273.606C276.13 274.514 279.855 274.973 283.595 274.973C287.268 274.907 290.915 274.35 294.441 273.317C294.192 284.245 293.241 295.091 292.536 305.978Z" fill="#4DC591"/>
<path d="M82.6205 268.099C82.0409 267.52 80.0548 266.07 78.4396 267.52C75.9975 269.671 79.6406 275.177 82.4626 275.011C86.9267 274.766 83.6978 268.929 82.6205 268.099Z" fill="#B0DDC9"/>
<path d="M276.103 270.75C275.704 266.49 275.771 261.81 274.695 257.669C274.64 257.481 274.519 257.32 274.355 257.213C274.191 257.106 273.994 257.061 273.8 257.086C273.606 257.11 273.427 257.204 273.295 257.349C273.164 257.493 273.088 257.681 273.082 257.876C272.998 262.141 274.116 266.736 274.695 270.957C274.819 271.744 276.181 271.578 276.103 270.75Z" fill="#4DC591"/>
<path d="M281.816 270.585C281.211 263.805 280.905 257.131 280.945 250.301C280.914 250.049 280.791 249.817 280.6 249.649C280.41 249.481 280.165 249.389 279.911 249.389C279.657 249.389 279.411 249.481 279.221 249.649C279.03 249.817 278.908 250.049 278.876 250.301C278.487 257.171 279.016 264.062 280.449 270.792C280.502 270.948 280.608 271.08 280.749 271.166C280.89 271.252 281.056 271.285 281.219 271.261C281.382 271.236 281.531 271.155 281.64 271.031C281.749 270.907 281.811 270.749 281.816 270.585Z" fill="#4DC591"/>
<path d="M289.225 269.965C289.979 265.82 290.343 261.519 290.757 257.338C291.423 252.925 291.783 248.472 291.833 244.009C291.828 243.777 291.74 243.554 291.585 243.382C291.429 243.209 291.218 243.098 290.988 243.068C290.757 243.037 290.524 243.091 290.33 243.218C290.136 243.345 289.993 243.537 289.929 243.76C289.176 247.946 288.692 252.177 288.48 256.425C288.066 260.855 287.528 265.325 287.528 269.755C287.528 270.668 289.051 270.915 289.225 269.965Z" fill="#4DC591"/>
<path d="M309.509 75.8625C309.344 72.7991 309.84 69.0324 307.025 67.0864C303.217 64.4774 297.628 64.1884 293.2 63.8576C279.01 62.6656 254.887 64.2733 249.99 65.3059C247.755 65.7618 246.844 67.9134 246.555 70.0247C246.368 72.1458 246.368 74.2793 246.555 76.4004C246.565 76.6571 246.674 76.9 246.859 77.0781C247.044 77.2563 247.291 77.3558 247.548 77.3558C247.805 77.3558 248.052 77.2563 248.237 77.0781C248.422 76.9 248.531 76.6571 248.541 76.4004C248.541 74.2891 247.838 67.748 250.155 67.3338C263.262 65.6658 276.487 65.112 289.688 65.6784C294.573 65.9272 300.118 66.1343 304.632 68.1622C305.166 68.322 305.659 68.5978 306.074 68.97C306.489 69.3423 306.816 69.8016 307.033 70.3152C307.033 71.4268 309.199 104.468 307.694 108.978C306.867 111.585 302.728 112.87 300.203 112.911C295.183 113.075 280.408 112.223 273.383 112.041C271.644 111.999 262.164 122.471 262.164 122.471C262.164 122.471 262.041 116.759 261.957 113.902C261.952 113.738 261.909 113.577 261.834 113.432C261.758 113.286 261.651 113.159 261.52 113.06C261.389 112.961 261.238 112.892 261.077 112.859C260.916 112.826 260.75 112.829 260.591 112.868C256.99 113.406 252.643 113.488 249.663 111.046C247.883 109.598 247.966 106.99 247.924 104.879C247.801 100.242 248.753 95.1938 247.801 90.5971C247.676 89.8938 246.476 90.0592 246.56 90.7625C247.096 96.4752 245.399 102.271 246.145 108.024C247.014 114.647 254.175 115.641 259.846 115.061C259.929 118.539 260.053 122.017 260.137 125.491C260.144 125.717 260.224 125.933 260.363 126.11C260.503 126.287 260.695 126.415 260.912 126.475C261.129 126.535 261.36 126.524 261.57 126.444C261.781 126.364 261.96 126.219 262.082 126.029C265.328 121.696 269.003 117.703 273.052 114.109C273.299 114.151 286.174 114.731 292.341 114.896C297.765 115.061 306.127 116.179 309.356 110.384C311.217 107.03 309.736 79.6441 309.509 75.8625Z" fill="#4DC591"/>
<path d="M262.278 108.647C262.289 108.815 262.363 108.972 262.486 109.087C262.609 109.202 262.771 109.265 262.939 109.265C263.107 109.265 263.269 109.202 263.392 109.087C263.515 108.972 263.589 108.815 263.601 108.647C264.213 97.1366 268.427 92.8529 274.488 90.5151C275.191 90.2677 275.191 89.0251 274.281 89.1085C270.473 89.3976 267.327 92.2539 265.341 95.3665C262.774 99.3746 262.298 103.97 262.278 108.647Z" fill="#4DC591"/>
<path d="M268.858 98.7951C268.113 102.145 267.643 105.551 267.452 108.978C267.457 109.163 267.528 109.341 267.652 109.479C267.776 109.617 267.945 109.707 268.129 109.732C268.313 109.757 268.5 109.715 268.656 109.615C268.812 109.515 268.928 109.362 268.982 109.185C269.625 105.812 269.999 102.393 270.1 98.9604C270.141 98.2974 268.978 98.132 268.858 98.7951Z" fill="#4DC591"/>
<path d="M295.889 98.0902C298.393 93.5472 296.51 88.1072 293.323 84.4299C292.785 83.8086 291.915 84.5953 292.247 85.2569C293.779 88.2786 295.641 91.4657 294.937 94.9851C294.359 97.8831 290.59 102.146 287.694 98.8755C287.593 98.7784 287.463 98.7168 287.324 98.6999C287.185 98.683 287.044 98.7118 286.922 98.7819C286.801 98.852 286.706 98.9596 286.651 99.0885C286.596 99.2175 286.584 99.3608 286.618 99.4968C286.775 100.005 287.043 100.472 287.403 100.863C287.125 102.483 286.667 107.047 287.238 108.611C287.28 108.754 287.367 108.88 287.486 108.97C287.606 109.06 287.751 109.108 287.9 109.108C288.049 109.108 288.195 109.06 288.314 108.97C288.434 108.88 288.521 108.754 288.562 108.611C288.759 106.326 288.828 104.032 288.77 101.739C291.171 102.52 294.7 100.249 295.889 98.0902Z" fill="#4DC591"/>
<path d="M288.397 95.6897C290.774 94.2265 292.578 91.3017 291.584 88.4453C291.543 88.3158 291.457 88.2051 291.342 88.133C291.227 88.061 291.089 88.0324 290.955 88.0523C290.82 88.0722 290.697 88.1393 290.608 88.2417C290.518 88.344 290.468 88.4748 290.467 88.6107C290.504 89.5634 290.326 90.5122 289.947 91.3866C289.567 92.2611 288.995 93.0388 288.273 93.6618C287.441 92.3389 286.334 91.2105 285.026 90.3534C283.719 89.4962 282.243 88.9303 280.698 88.6942C280.627 88.6746 280.554 88.6691 280.481 88.6781C280.408 88.687 280.338 88.7102 280.274 88.7464C280.21 88.7825 280.154 88.8308 280.109 88.8886C280.064 88.9463 280.031 89.0124 280.011 89.0831C279.992 89.1537 279.986 89.2275 279.995 89.3002C280.004 89.373 280.027 89.4433 280.063 89.507C280.1 89.5708 280.148 89.6269 280.206 89.672C280.263 89.7171 280.329 89.7504 280.4 89.7699C281.852 90.1922 283.202 90.9055 284.369 91.8664C285.536 92.8272 286.495 94.0155 287.189 95.3589C287.244 95.4625 287.319 95.5537 287.411 95.627C287.503 95.7002 287.608 95.754 287.721 95.7849C287.835 95.8159 287.953 95.8235 288.069 95.8071C288.185 95.7907 288.297 95.7508 288.397 95.6897Z" fill="#4DC591"/>
<path d="M287.61 87.1209C285.44 84.6609 282.872 90.1843 286.204 90.1843C291.999 90.1843 293.612 79.7945 292.536 77.269C291.791 75.4899 288.853 74.9103 288.314 77.2273C288.246 77.5542 288.276 77.8937 288.398 78.2043C288.52 78.5149 288.73 78.7831 289.003 78.9764C289.275 79.1696 289.597 79.2794 289.931 79.2924C290.264 79.3054 290.595 79.221 290.881 79.0495C290.881 79.3386 290.59 84.3063 287.61 87.1209Z" fill="#4DC591"/>
<path d="M267.409 86.1271C267.78 86.589 268.259 86.952 268.804 87.1839C269.349 87.4157 269.943 87.5092 270.533 87.4559C271.123 87.4027 271.691 87.2044 272.185 86.8787C272.68 86.553 273.087 86.11 273.369 85.5892C273.762 86.274 274.329 86.8429 275.012 87.2385C275.695 87.6341 276.47 87.8425 277.26 87.8425C278.049 87.8425 278.825 87.6341 279.508 87.2385C280.191 86.8429 280.758 86.274 281.151 85.5892C281.239 85.9678 281.453 86.3054 281.757 86.5472C282.061 86.7889 282.439 86.9205 282.827 86.9205C283.216 86.9205 283.593 86.7889 283.898 86.5472C284.202 86.3054 284.416 85.9678 284.504 85.5892C284.806 85.4385 285.063 85.2091 285.246 84.9252C285.43 84.6413 285.533 84.3133 285.547 83.9755C285.88 83.8136 286.142 83.5329 286.279 83.1884C286.417 82.844 286.422 82.4605 286.292 82.113C286.333 81.894 286.333 81.669 286.292 81.45C286.52 81.199 286.689 80.8995 286.785 80.5739C286.881 80.2484 286.901 79.9053 286.846 79.5705C286.79 79.2357 286.659 78.918 286.463 78.6411C286.266 78.3643 286.01 78.1356 285.712 77.9723C285.554 77.8863 285.388 77.8169 285.216 77.7652C285.298 77.3108 284.925 76.5658 283.85 76.6477C283.731 76.4424 283.577 76.2602 283.394 76.1098C283.391 75.843 283.326 75.5804 283.204 75.3432C283.082 75.1059 282.906 74.9005 282.69 74.7435C282.754 74.3635 282.705 73.9732 282.549 73.6208C282.393 73.2683 282.138 72.9692 281.814 72.7603C281.607 72.4616 281.339 72.2109 281.027 72.0252C280.715 71.8394 280.366 71.7229 280.005 71.6836C279.644 71.6443 279.279 71.6832 278.934 71.7975C278.589 71.9118 278.273 72.0989 278.007 72.3461C277.685 71.9491 277.255 71.6537 276.769 71.4954C276.282 71.3371 275.761 71.3226 275.267 71.4537C274.772 71.5848 274.327 71.8559 273.983 72.2344C273.639 72.6129 273.412 73.0827 273.329 73.5873C273.029 73.4039 272.688 73.2974 272.337 73.277C271.986 73.2565 271.636 73.3229 271.316 73.4702C270.997 73.6175 270.719 73.8412 270.507 74.1215C270.295 74.4018 270.155 74.7301 270.1 75.0773C269.958 74.9536 267.914 75.2575 269.438 77.0217C269.108 77.219 268.826 77.4873 268.613 77.8071C268.399 78.127 268.26 78.4904 268.204 78.8709C268.149 79.2514 268.179 79.6395 268.292 80.007C268.405 80.3745 268.599 80.7122 268.859 80.9955C268.355 81.1551 267.898 81.4374 267.53 81.817C267.162 82.1967 266.894 82.6618 266.751 83.1705C266.607 83.6793 266.592 84.2158 266.707 84.7319C266.822 85.2479 267.063 85.7274 267.409 86.1271ZM276.765 86.5413C272.838 85.7665 273.205 80.249 273.288 80.0434C274.171 79.8787 275.002 79.5078 275.714 78.961C276.426 78.4141 276.999 77.7067 277.386 76.8965C277.762 77.7021 278.367 78.379 279.125 78.8428C279.884 79.3065 280.762 79.5365 281.65 79.504C281.577 80.2606 281.549 81.0209 281.567 81.7808C281.567 81.8642 279.999 87.179 276.765 86.5413Z" fill="#4DC591"/>
<path d="M71.4023 197.604C76.9496 201.207 82.4968 204.849 87.8787 208.657C88.0404 208.753 88.2244 208.804 88.4121 208.806C88.5998 208.808 88.7848 208.76 88.9483 208.668C89.1118 208.575 89.2482 208.442 89.3437 208.28C89.4392 208.118 89.4905 207.935 89.4924 207.747C89.1616 204.56 88.7891 201.413 88.4583 198.226C94.46 199.799 102.077 200.172 104.188 192.887C105.222 189.244 104.975 185.021 104.975 181.296C105.015 176.576 105.057 171.775 104.643 167.055C104.643 166.77 104.529 166.496 104.328 166.294C104.126 166.092 103.852 165.979 103.567 165.979C103.282 165.979 103.008 166.092 102.806 166.294C102.604 166.496 102.491 166.77 102.491 167.055C102.326 174.176 102.938 181.255 102.491 188.374C102.284 191.851 101.581 195.246 97.896 196.569C94.5018 197.77 90.7753 196.651 87.466 195.658C87.3007 195.615 87.1278 195.611 86.9604 195.644C86.7931 195.678 86.6355 195.75 86.4998 195.853C86.3642 195.957 86.2538 196.09 86.1773 196.243C86.1007 196.395 86.0599 196.563 86.0579 196.734L87.0518 205.552C82.4983 202.447 73.0607 195.658 72.3157 195.74C66.4376 196.403 43.2607 197.893 37.6672 197.479C35.4739 197.314 32.8247 196.858 31.5001 194.872C29.9252 192.513 30.2977 156.796 30.5048 150.871C30.5867 148.387 30.5867 145.323 32.6161 143.501C34.6023 141.722 37.542 141.764 40.0259 141.722C50.6645 141.557 95.8681 139.694 98.4756 140.521C101.786 141.557 102.077 145.696 102.159 148.552C102.201 149.628 103.981 150 104.188 148.841C104.85 144.495 103.857 139.527 98.93 138.493C95.5358 137.757 95.3928 138.551 42.468 139.569C38.0799 139.652 32.3256 139.403 29.8417 143.873C28.9223 145.928 28.4836 148.165 28.5588 150.415C28.3934 154.058 28.3934 188.001 28.7242 191.272C29.1712 196.219 31.363 198.908 37.7074 199.261C41.3505 199.51 63.8689 198.475 71.4023 197.604Z" fill="#4DC591"/>
<path d="M78.6885 180.012C78.2476 183.569 78.5578 187.179 79.5989 190.609C79.656 190.801 79.7793 190.966 79.9469 191.076C80.1145 191.186 80.3157 191.232 80.5145 191.208C80.7133 191.183 80.8969 191.089 81.0326 190.941C81.1684 190.794 81.2474 190.603 81.2558 190.403C81.2057 188.665 81.0118 186.934 80.6762 185.228C80.4691 183.489 80.3782 181.751 80.1785 180.013C80.1787 179.816 80.1004 179.626 79.9609 179.486C79.8213 179.346 79.6319 179.268 79.4343 179.268C79.2367 179.267 79.0471 179.346 78.9073 179.485C78.7674 179.625 78.6887 179.814 78.6885 180.012Z" fill="#4DC591"/>
<path d="M83.9451 176.701C86.8014 181.383 85.8821 184.765 86.2233 187.587C86.3053 188.25 87.3408 188.788 87.7133 188.001C90.2255 182.269 85.6273 172.207 78.0671 169.457C78.0671 169.25 76.5368 167.511 76.0392 166.682C75.9748 166.576 75.8873 166.486 75.7831 166.418C75.679 166.35 75.5608 166.307 75.4376 166.291C75.3143 166.275 75.189 166.287 75.0711 166.326C74.9531 166.365 74.8455 166.431 74.7563 166.517C73.9696 167.304 70.9061 168.752 71.155 169.332C71.6229 170.656 72.2188 171.931 72.934 173.14C73.0156 173.263 73.1263 173.364 73.2563 173.434C73.3863 173.503 73.5315 173.54 73.679 173.54C73.8265 173.54 73.9718 173.503 74.1018 173.434C74.2318 173.364 74.3425 173.263 74.424 173.14C75.1554 172.167 76.0353 171.315 77.0315 170.616C79.8295 172.004 82.2137 174.102 83.9451 176.701ZM73.8459 171.236L72.9757 169.746C73.7594 169.38 74.4963 168.921 75.1705 168.38C75.4178 168.712 75.6667 169.043 75.9572 169.373C75.1955 169.925 74.4884 170.549 73.8459 171.236Z" fill="#4DC591"/>
<path d="M67.5121 173.472C68.3465 172.484 69.0021 171.401 69.7471 170.325C69.8609 170.133 69.8944 169.903 69.8403 169.687C69.7862 169.47 69.6489 169.283 69.4581 169.166C68.6713 168.628 67.8429 168.172 67.0562 167.676C66.5533 167.262 65.9569 166.978 65.3188 166.848C63.8631 166.848 63.8795 168.26 63.2075 168.505C63.1384 168.527 63.0746 168.564 63.0201 168.612C62.9656 168.66 62.9215 168.719 62.8904 168.785C62.8593 168.851 62.8419 168.922 62.8393 168.995C62.8367 169.068 62.8489 169.14 62.8752 169.208C61.5923 169.166 57.7422 171.941 56.4593 174.672C55.2284 173.171 54.5929 171.27 54.6743 169.332C54.8799 169.498 55.087 169.704 55.3358 169.871C58.5647 171.857 61.1319 169.291 60.8488 167.76C60.4346 165.69 57.62 164.447 56.9584 167.222C55.7181 166.078 54.7672 164.655 54.1841 163.072C53.6009 161.488 53.4023 159.789 53.6045 158.113C53.6045 158.155 55.0125 158.818 55.6338 156.996C55.8606 156.568 55.9302 156.074 55.8305 155.601C55.7308 155.127 55.4682 154.703 55.0883 154.403C54.7084 154.103 54.2353 153.945 53.7513 153.958C53.2673 153.97 52.803 154.152 52.4393 154.472C51.1147 155.34 51.1981 161.509 51.4469 162.999C51.3218 163.041 44.9893 173.182 49.7901 179.723C50.5968 180.868 51.7041 181.767 52.9899 182.322C54.2756 182.877 55.6898 183.066 57.0762 182.868C56.9854 185.965 57.1239 189.065 57.4904 192.142C57.614 193.258 59.2694 193.341 59.2694 192.142C59.3171 188.845 59.0958 185.55 58.6079 182.289C59.3827 181.872 60.0706 181.311 60.6343 180.636C61.1319 179.973 60.2618 179.063 59.7239 179.726C59.0324 180.45 58.2018 181.027 57.2818 181.423C54.3018 182.292 50.9895 179.684 50.0791 176.455C48.9199 172.316 50.8241 168.631 51.9416 164.982C52.3454 166.107 52.8874 167.178 53.5553 168.169C53.0033 169.954 53.0325 171.868 53.6387 173.635C54.0529 174.752 54.8799 176.822 56.3297 176.864C57.7362 176.905 58.441 175.539 58.9372 174.503C59.8893 172.475 63.574 170.364 63.6158 170.199C64.5723 170.905 67.0189 174.055 67.5121 173.472ZM64.7392 169.124C64.9046 168.877 65.07 168.505 65.1862 168.463C65.4544 168.363 65.8001 168.734 67.8354 170.16L67.2156 171.278C66.468 170.475 65.638 169.753 64.7392 169.124Z" fill="#4DC591"/>
<path d="M69.6653 172.602C69.4999 172.064 68.5061 171.775 68.4644 172.437C68.46 172.681 68.5076 172.923 68.604 173.147C68.7004 173.371 68.8435 173.572 69.0236 173.736C69.2038 173.901 69.4169 174.025 69.6488 174.101C69.8807 174.177 70.1261 174.202 70.3686 174.176C70.638 174.163 70.9005 174.086 71.1341 173.951C71.3677 173.816 71.5657 173.628 71.7115 173.401C71.8574 173.174 71.9468 172.915 71.9724 172.647C71.998 172.378 71.959 172.107 71.8586 171.857C71.7938 171.746 71.6966 171.658 71.58 171.604C71.4634 171.55 71.3331 171.534 71.2067 171.556C71.0803 171.579 70.9639 171.64 70.8732 171.73C70.7825 171.821 70.7218 171.938 70.6994 172.064C70.6174 172.851 70.2032 173.596 69.6653 172.602Z" fill="#4DC591"/>
<path d="M70.2444 191.106C70.815 191.734 71.1965 191.023 71.569 190.403C72.3859 189.459 73.0812 188.415 73.6386 187.298C74.0469 186.002 73.3078 184.477 71.7761 175.169C71.7168 174.983 71.5911 174.826 71.4229 174.726C71.2546 174.627 71.0558 174.593 70.8642 174.632C70.0194 174.8 68.881 174.608 68.7946 175.169C68.0496 178.447 67.5534 181.792 66.9738 185.103C66.6311 186.933 66.1186 186.577 70.2444 191.106ZM68.878 182.911C69.2654 180.554 69.4577 178.193 69.7467 175.791C70.118 175.832 70.4929 175.832 70.8642 175.791C71.6927 175.916 72.1888 184.609 72.314 185.561C72.5613 187.349 70.7405 189.584 70.6571 189.7C70.0543 188.922 69.5014 188.106 69.0017 187.258C68.0913 186.015 68.6396 184.361 68.878 182.91V182.911Z" fill="#4DC591"/>
<path d="M73.3898 151.201C72.8086 150.886 72.1422 150.764 71.4872 150.854C70.8321 150.943 70.2225 151.238 69.7468 151.697C69.0858 151.285 68.3193 151.073 67.5404 151.088C66.7614 151.103 66.0035 151.344 65.3587 151.781C62.1299 154.223 64.0758 159.812 64.2829 160.266C64.9445 163.868 66.8904 167.594 71.0714 167.055C75.005 166.559 76.2462 161.509 75.9973 157.535C76.1627 152.94 74.6727 151.906 73.3898 151.201ZM70.2444 160.266C69.5008 160.237 68.7606 160.384 68.0843 160.694C67.408 161.005 66.8147 161.471 66.3526 162.054C65.9887 161.048 65.7252 160.008 65.5658 158.949C66.293 157.081 68.8826 156.51 69.8302 154.852C71.2368 155.928 74.2183 156.044 74.2585 158.121C74.4367 159.364 74.3668 160.63 74.0529 161.846C74.0112 161.756 73.1827 160.521 70.2444 160.266Z" fill="#4DC591"/>
</svg>
