<svg width="188" height="150" viewBox="0 0 188 150" fill="none" xmlns="http://www.w3.org/2000/svg">
<path d="M23.3 53.5V67.7H46.2V80.9H23.3V96.3H49.2V110H6.2V39.8H49.2V53.5H23.3ZM113.802 62.4C113.802 66.4667 112.868 70.2 111.002 73.6C109.135 76.9333 106.268 79.6333 102.402 81.7C98.5349 83.7667 93.7349 84.8 88.0016 84.8H77.4016V110H60.3016V39.8H88.0016C93.6016 39.8 98.3349 40.7667 102.202 42.7C106.068 44.6333 108.968 47.3 110.902 50.7C112.835 54.1 113.802 58 113.802 62.4ZM86.7016 71.2C89.9682 71.2 92.4016 70.4333 94.0016 68.9C95.6016 67.3667 96.4016 65.2 96.4016 62.4C96.4016 59.6 95.6016 57.4333 94.0016 55.9C92.4016 54.3667 89.9682 53.6 86.7016 53.6H77.4016V71.2H86.7016ZM139.504 39.8V81.8C139.504 86 140.537 89.2333 142.604 91.5C144.671 93.7667 147.704 94.9 151.704 94.9C155.704 94.9 158.771 93.7667 160.904 91.5C163.037 89.2333 164.104 86 164.104 81.8V39.8H181.204V81.7C181.204 87.9667 179.871 93.2667 177.204 97.6C174.537 101.933 170.937 105.2 166.404 107.4C161.937 109.6 156.937 110.7 151.404 110.7C145.871 110.7 140.904 109.633 136.504 107.5C132.171 105.3 128.737 102.033 126.204 97.7C123.671 93.3 122.404 87.9667 122.404 81.7V39.8H139.504Z" fill="white"/>
<path d="M10.825 123.875V127.425H16.55V130.725H10.825V134.575H17.3V138H6.55V120.45H17.3V123.875H10.825ZM19.2254 131C19.2254 129.567 19.4921 128.308 20.0254 127.225C20.5754 126.142 21.3171 125.308 22.2504 124.725C23.1837 124.142 24.2254 123.85 25.3754 123.85C26.2921 123.85 27.1254 124.042 27.8754 124.425C28.6421 124.808 29.2421 125.325 29.6754 125.975V119.5H33.9504V138H29.6754V136C29.2754 136.667 28.7004 137.2 27.9504 137.6C27.2171 138 26.3587 138.2 25.3754 138.2C24.2254 138.2 23.1837 137.908 22.2504 137.325C21.3171 136.725 20.5754 135.883 20.0254 134.8C19.4921 133.7 19.2254 132.433 19.2254 131ZM29.6754 131.025C29.6754 129.958 29.3754 129.117 28.7754 128.5C28.1921 127.883 27.4754 127.575 26.6254 127.575C25.7754 127.575 25.0504 127.883 24.4504 128.5C23.8671 129.1 23.5754 129.933 23.5754 131C23.5754 132.067 23.8671 132.917 24.4504 133.55C25.0504 134.167 25.7754 134.475 26.6254 134.475C27.4754 134.475 28.1921 134.167 28.7754 133.55C29.3754 132.933 29.6754 132.092 29.6754 131.025ZM50.8182 124.05V138H46.5432V136.1C46.1098 136.717 45.5182 137.217 44.7682 137.6C44.0348 137.967 43.2182 138.15 42.3182 138.15C41.2515 138.15 40.3098 137.917 39.4932 137.45C38.6765 136.967 38.0432 136.275 37.5932 135.375C37.1432 134.475 36.9182 133.417 36.9182 132.2V124.05H41.1682V131.625C41.1682 132.558 41.4098 133.283 41.8932 133.8C42.3765 134.317 43.0265 134.575 43.8432 134.575C44.6765 134.575 45.3348 134.317 45.8182 133.8C46.3015 133.283 46.5432 132.558 46.5432 131.625V124.05H50.8182ZM67.2639 126.1C67.2639 127.117 67.0305 128.05 66.5639 128.9C66.0972 129.733 65.3805 130.408 64.4139 130.925C63.4472 131.442 62.2472 131.7 60.8139 131.7H58.1639V138H53.8889V120.45H60.8139C62.2139 120.45 63.3972 120.692 64.3639 121.175C65.3305 121.658 66.0555 122.325 66.5389 123.175C67.0222 124.025 67.2639 125 67.2639 126.1ZM60.4889 128.3C61.3055 128.3 61.9139 128.108 62.3139 127.725C62.7139 127.342 62.9139 126.8 62.9139 126.1C62.9139 125.4 62.7139 124.858 62.3139 124.475C61.9139 124.092 61.3055 123.9 60.4889 123.9H58.1639V128.3H60.4889ZM73.7645 119.5V138H69.4895V119.5H73.7645ZM76.0125 131C76.0125 129.567 76.2792 128.308 76.8125 127.225C77.3625 126.142 78.1042 125.308 79.0375 124.725C79.9708 124.142 81.0125 123.85 82.1625 123.85C83.1458 123.85 84.0042 124.05 84.7375 124.45C85.4875 124.85 86.0625 125.375 86.4625 126.025V124.05H90.7375V138H86.4625V136.025C86.0458 136.675 85.4625 137.2 84.7125 137.6C83.9792 138 83.1208 138.2 82.1375 138.2C81.0042 138.2 79.9708 137.908 79.0375 137.325C78.1042 136.725 77.3625 135.883 76.8125 134.8C76.2792 133.7 76.0125 132.433 76.0125 131ZM86.4625 131.025C86.4625 129.958 86.1625 129.117 85.5625 128.5C84.9792 127.883 84.2625 127.575 83.4125 127.575C82.5625 127.575 81.8375 127.883 81.2375 128.5C80.6542 129.1 80.3625 129.933 80.3625 131C80.3625 132.067 80.6542 132.917 81.2375 133.55C81.8375 134.167 82.5625 134.475 83.4125 134.475C84.2625 134.475 84.9792 134.167 85.5625 133.55C86.1625 132.933 86.4625 132.092 86.4625 131.025ZM102.33 123.9C103.964 123.9 105.264 124.433 106.23 125.5C107.214 126.55 107.705 128 107.705 129.85V138H103.455V130.425C103.455 129.492 103.214 128.767 102.73 128.25C102.247 127.733 101.597 127.475 100.78 127.475C99.9636 127.475 99.3136 127.733 98.8303 128.25C98.3469 128.767 98.1053 129.492 98.1053 130.425V138H93.8303V124.05H98.1053V125.9C98.5386 125.283 99.1219 124.8 99.8553 124.45C100.589 124.083 101.414 123.9 102.33 123.9ZM119.176 123.9C120.809 123.9 122.109 124.433 123.076 125.5C124.059 126.55 124.551 128 124.551 129.85V138H120.301V130.425C120.301 129.492 120.059 128.767 119.576 128.25C119.093 127.733 118.443 127.475 117.626 127.475C116.809 127.475 116.159 127.733 115.676 128.25C115.193 128.767 114.951 129.492 114.951 130.425V138H110.676V124.05H114.951V125.9C115.384 125.283 115.968 124.8 116.701 124.45C117.434 124.083 118.259 123.9 119.176 123.9ZM140.672 130.8C140.672 131.2 140.647 131.617 140.597 132.05H130.922C130.988 132.917 131.263 133.583 131.747 134.05C132.247 134.5 132.855 134.725 133.572 134.725C134.638 134.725 135.38 134.275 135.797 133.375H140.347C140.113 134.292 139.688 135.117 139.072 135.85C138.472 136.583 137.713 137.158 136.797 137.575C135.88 137.992 134.855 138.2 133.722 138.2C132.355 138.2 131.138 137.908 130.072 137.325C129.005 136.742 128.172 135.908 127.572 134.825C126.972 133.742 126.672 132.475 126.672 131.025C126.672 129.575 126.963 128.308 127.547 127.225C128.147 126.142 128.98 125.308 130.047 124.725C131.113 124.142 132.338 123.85 133.722 123.85C135.072 123.85 136.272 124.133 137.322 124.7C138.372 125.267 139.188 126.075 139.772 127.125C140.372 128.175 140.672 129.4 140.672 130.8ZM136.297 129.675C136.297 128.942 136.047 128.358 135.547 127.925C135.047 127.492 134.422 127.275 133.672 127.275C132.955 127.275 132.347 127.483 131.847 127.9C131.363 128.317 131.063 128.908 130.947 129.675H136.297ZM147.202 126.375C147.702 125.608 148.327 125.008 149.077 124.575C149.827 124.125 150.66 123.9 151.577 123.9V128.425H150.402C149.335 128.425 148.535 128.658 148.002 129.125C147.469 129.575 147.202 130.375 147.202 131.525V138H142.927V124.05H147.202V126.375ZM157.82 120.45V130.95C157.82 132 158.079 132.808 158.595 133.375C159.112 133.942 159.87 134.225 160.87 134.225C161.87 134.225 162.637 133.942 163.17 133.375C163.704 132.808 163.97 132 163.97 130.95V120.45H168.245V130.925C168.245 132.492 167.912 133.817 167.245 134.9C166.579 135.983 165.679 136.8 164.545 137.35C163.429 137.9 162.179 138.175 160.795 138.175C159.412 138.175 158.17 137.908 157.07 137.375C155.987 136.825 155.129 136.008 154.495 134.925C153.862 133.825 153.545 132.492 153.545 130.925V120.45H157.82ZM175.247 134.475H181.297V138H170.472V134.6L176.272 127.575H170.522V124.05H181.172V127.45L175.247 134.475Z" fill="white"/>
</svg>
